<svg width="395" height="396" viewBox="0 0 395 396" fill="none" xmlns="http://www.w3.org/2000/svg">
<path d="M341 265.003C341 336.801 276.305 395.005 196.5 395.005C116.695 395.005 52 336.801 52 265.003C52 193.205 116.695 135.002 196.5 135.002C276.305 135.002 341 193.205 341 265.003Z" fill="url(#paint0_linear_103_38)"/>
<path d="M230 319.004C230 333.087 214.621 344.504 197.5 344.504C180.379 344.504 164.5 333.087 164.5 319.004C164.5 304.92 180.379 293.504 197.5 293.504C214.621 293.504 230 304.92 230 319.004Z" fill="#F8CF92"/>
<path d="M301.5 291.503C301.5 305.921 291.148 317.503 278.5 317.503C265.852 317.503 255.5 305.921 255.5 291.503C255.5 277.086 265.852 265.503 278.5 265.503C291.148 265.503 301.5 277.086 301.5 291.503Z" fill="white" stroke="white"/>
<path d="M139.5 291.503C139.5 305.921 129.148 317.503 116.5 317.503C103.852 317.503 93.5 305.921 93.5 291.503C93.5 277.086 103.852 265.503 116.5 265.503C129.148 265.503 139.5 277.086 139.5 291.503Z" fill="white" stroke="white"/>
<ellipse cx="105.5" cy="291.503" rx="11.5" ry="12.5" fill="#404040"/>
<ellipse cx="267.5" cy="291.503" rx="11.5" ry="12.5" fill="#404040"/>
<path d="M149 4.00004C153.5 -0.500015 241.5 -0.500016 245 4.00004C248.5 8.5001 236 146.002 236 146.002C223.5 160.002 213.535 160.002 198.5 160.002C183.465 160.002 172.5 160.002 159 145.002C159 145.002 144.5 8.5001 149 4.00004Z" fill="#F8D6E6"/>
<path d="M157.438 143.898C161 167.002 232.505 166.858 237.586 144.927" stroke="#CBD5FF" stroke-width="3"/>
<path d="M164.5 320.504C196 338.004 199 338.004 230 320.504" stroke="white" stroke-width="2"/>
<defs>
<linearGradient id="paint0_linear_103_38" x1="197" y1="162.502" x2="196.5" y2="395.005" gradientUnits="userSpaceOnUse">
<stop offset="0.545375" stop-color="#CBD5FF"/>
<stop offset="1" stop-color="white"/>
</linearGradient>
</defs>
</svg>
